<?xml version="1.0" encoding="utf-8"?>
<svg version="1.1" id="Layer_1" xmlns="http://www.w3.org/2000/svg" xmlns:xlink="http://www.w3.org/1999/xlink" x="0px" y="0px"
	 viewBox="0 0 17 17" style="enable-background:new 0 0 17 17;" xml:space="preserve">
<path opacity="0.5" fill="#FFFFFF" d="M12.6,8.5l3.6-3.6c1.1-1.1,1.1-3,0-4.1c-1.1-1.1-3-1.1-4.1,0L8.5,4.4L4.9,0.8c-1.1-1.1-3-1.1-4.1,0
	s-1.1,3,0,4.1l3.6,3.6l-3.6,3.6c-1.1,1.1-1.1,3,0,4.1s3,1.1,4.1,0l3.6-3.6l3.6,3.6c1.1,1.1,3,1.1,4.1,0c1.1-1.1,1.1-3,0-4.1
	L12.6,8.5z"/>
</svg>
