<?xml version="1.0" encoding="utf-8"?>
<svg version="1.1" id="Layer_1" xmlns="http://www.w3.org/2000/svg" xmlns:xlink="http://www.w3.org/1999/xlink" x="0px" y="0px"
	 viewBox="0 0 46 46" style="enable-background:new 0 0 46 46;" xml:space="preserve">
<path fill="#979797" d="M42,28H4c-1.6,0-3-1.3-3-3v0c0-1.6,1.3-3,3-3h38c1.6,0,3,1.3,3,3v0C45,26.7,43.7,28,42,28z"/>
<circle fill="#979797" cx="13.5" cy="37.5" r="5.5"/>
<circle fill="#979797" cx="32.5" cy="37.5" r="5.5"/>
<path fill="#979797" d="M28,38c0,0-3-1-5-1c-2,0-5,1-5,1v-2c0,0,3-1,5-1s5,1,5,1V38z"/>
<path fill="#979797" d="M39,19c-0.5-5.2-2.2-15.5-6-17.7c-2.5-1.4-7.1,2.9-10,2.9s-7.5-4.3-10-2.9C9.2,3.4,7.5,13.8,7,19L39,19z"/>
</svg>
