<?xml version="1.0" encoding="utf-8"?>
<svg id="Layer_1" x="0px" y="0px" viewBox="0 0 46 46" style="enable-background:new 0 0 46 46;" xml:space="preserve">
	<path fill="#979797" d="M35.71,7H3.29C1.47,7,0,8.47,0,10.29v29.43C0,41.53,1.47,43,3.29,43h32.43c1.81,0,3.29-1.47,3.29-3.29V10.29
		C39,8.47,37.53,7,35.71,7z M4,11h10v3H4V11z M33.36,39H5.64C4.74,39,4,38.26,4,37.36V18.64C4,17.74,4.74,17,5.64,17h27.71
		c0.91,0,1.64,0.74,1.64,1.64v18.71C35,38.26,34.26,39,33.36,39z"/>
	<path opacity="0.5" fill="#979797" d="M42.71,0H10.29C8.47,0,7,1.47,7,3.29V11h28v24h7.71c1.81,0,3.29-1.47,3.29-3.29V3.29C46,1.47,44.53,0,42.71,0z"/>
</svg>
