<?xml version="1.0" encoding="utf-8"?>
<svg x="0px" y="0px" viewBox="0 0 46 46" style="enable-background:new 0 0 46 46;" xml:space="preserve">
	<path fill="#979797"  d="M1.41,30.41l1.17,1.17c0.78,0.78,2.05,0.78,2.83,0L13,24l7.59,7.59c0.78,0.78,2.05,0.78,2.83,0L41,14l1.59,1.59
		c1.26,1.26,3.41,0.37,3.41-1.41V7c0-1.1-0.9-2-2-2h-7.17c-1.78,0-2.67,2.15-1.41,3.41L37,10L22,25l-7.59-7.59
		c-0.78-0.78-2.05-0.78-2.83,0L1.41,27.59C0.63,28.37,0.63,29.63,1.41,30.41z"/>
	<path fill="#979797" d="M7.54,33.71c-0.94,0.94-2.2,1.46-3.54,1.46V42c0,1.1,0.9,2,2,2h3c1.1,0,2-0.9,2-2V30.24L7.54,33.71z"/>
	<path fill="#979797" d="M15,30.24V42c0,1.1,0.9,2,2,2h3c1.1,0,2-0.9,2-2v-6.83c-1.34,0-2.59-0.52-3.54-1.46L15,30.24z"/>
	<path fill="#979797" d="M26,33.24V42c0,1.1,0.9,2,2,2h3c1.1,0,2-0.9,2-2V26.24L26,33.24z"/>
	<path fill="#979797" d="M41.04,18.2L37,22.24V42c0,1.1,0.9,2,2,2h3c1.1,0,2-0.9,2-2V19.17C42.94,19.17,41.91,18.84,41.04,18.2z"/>
</svg>
