<?xml version="1.0" encoding="utf-8"?>

<svg version="1.1" id="Layer_1" xmlns="http://www.w3.org/2000/svg" xmlns:xlink="http://www.w3.org/1999/xlink" x="0px" y="0px"
	 viewBox="0 0 46 46" style="enable-background:new 0 0 46 46;" xml:space="preserve">
<g>
	<g opacity="0.5">
		<path fill="#FFFFFF" d="M32.98,6c-1.02,0-2.01,0.13-2.97,0.35c1.89,1.2,3.5,2.82,4.69,4.72c3.67,0.79,6.42,4.05,6.42,7.95
			c0,2.35-1,4.47-2.6,5.95c0.19,0.93,0.29,1.88,0.29,2.87c0,1.01-0.11,2-0.3,2.96C42.93,28.72,46,24.23,46,19.02
			C46,11.83,40.17,6,32.98,6z"/>
		<path fill="#FFFFFF" d="M31.81,30.36c-0.85,2.79-3.17,4.94-6.05,5.57c-1.19,1.9-2.8,3.52-4.69,4.72C22.02,40.87,23,41,24.02,41
			c7.2,0,13.02-5.83,13.02-13.02c0-1.54-0.28-3.02-0.77-4.4C35.43,26.2,33.89,28.55,31.81,30.36z"/>
	</g>
	<path fill="#FFFFFF" d="M21.98,6c-5.96,0-10.96,4-12.52,9.47C4,17.01,0,22.02,0,27.98C0,35.17,5.83,41,13.02,41
		s13.02-5.83,13.02-13.02c0-6.57-4.88-11.99-11.2-12.88c1.38-2.52,4.06-4.22,7.13-4.22c4.49,0,8.14,3.65,8.14,8.14
		c0,2.35-1,4.47-2.6,5.95c0.19,0.93,0.29,1.88,0.29,2.87c0,1.01-0.11,2-0.3,2.96C31.93,28.72,35,24.23,35,19.02
		C35,11.83,29.17,6,21.98,6z M21.16,27.98c0,4.49-3.65,8.14-8.14,8.14s-8.14-3.65-8.14-8.14c0-3.07,1.7-5.74,4.21-7.12
		c0.73,5.16,4.48,9.34,9.4,10.7c0.74-1.06,1.17-2.34,1.17-3.72c0-0.36-0.04-0.7-0.09-1.04c-3.06-0.94-5.35-3.64-5.69-6.91
		C17.98,20.32,21.16,23.78,21.16,27.98z"/>
</g>
</svg>
