<?xml version="1.0" encoding="utf-8"?>
<svg version="1.1" id="Layer_1" xmlns="http://www.w3.org/2000/svg" xmlns:xlink="http://www.w3.org/1999/xlink" x="0px" y="0px"
	 viewBox="0 0 16 16" style="enable-background:new 0 0 16 16;" xml:space="preserve">

<g id="Circle_Count">
	<path  fill="#b0B0AF" d="M10.2,3.5L9.3,5.3C10.3,5.8,11,6.8,11,8c0,1.7-1.3,3-3,3l-1,1l1,1c2.8,0,5-2.2,5-5C13,6,11.9,4.4,10.2,3.5z"/>
	<path  fill="#b0B0AF" d="M5.8,12.5l0.9-1.8C5.7,10.2,5,9.2,5,8c0-1.7,1.3-3,3-3l1-1L8,3C5.2,3,3,5.2,3,8C3,10,4.1,11.6,5.8,12.5z"/>
</g>
</svg>
