<?xml version="1.0" encoding="utf-8"?>

<svg version="1.1" id="Layer_1" xmlns="http://www.w3.org/2000/svg" xmlns:xlink="http://www.w3.org/1999/xlink" x="0px" y="0px"
	 viewBox="0 0 46 46" style="enable-background:new 0 0 46 46;" xml:space="preserve">
<g>
	<path fill="#FFFFFF" d="M23,1C10.85,1,1,10.85,1,23s9.85,22,22,22s22-9.85,22-22S35.15,1,23,1z M23,40c-9.39,0-17-7.61-17-17
		S13.61,6,23,6s17,7.61,17,17S32.39,40,23,40z"/>
	<circle fill="#FFFFFF" cx="23" cy="16" r="3"/>
	<polygon fill="#FFFFFF" points="25,24 25,23 25,22 19,22 19,24 21,24 21,31 18,31 18,33 28,33 28,31 25,31 	"/>
</g>
</svg>
