<?xml version="1.0" encoding="utf-8"?>

<svg version="1.1" id="Layer_1" xmlns="http://www.w3.org/2000/svg" xmlns:xlink="http://www.w3.org/1999/xlink" x="0px" y="0px"
	 viewBox="0 0 46 46" style="enable-background:new 0 0 46 46;" xml:space="preserve">
<path fill="#FFFFFF" d="M28,2c-7.32,0-13.47,4.92-15.38,11.63C5.92,15.53,1,21.68,1,29c0,8.84,7.16,16,16,16s16-7.16,16-16
	c0-8.07-5.99-14.73-13.76-15.82C20.94,10.09,24.23,8,28,8c5.52,0,10,4.48,10,10c0,2.89-1.23,5.49-3.19,7.31
	c0.23,1.14,0.36,2.31,0.36,3.52c0,1.24-0.13,2.46-0.37,3.64C40.23,29.91,44,24.4,44,18C44,9.16,36.84,2,28,2z M27,29
	c0,5.52-4.48,10-10,10S7,34.52,7,29c0-3.77,2.09-7.05,5.17-8.75c0.9,6.34,5.5,11.48,11.55,13.15c0.91-1.3,1.44-2.87,1.44-4.57
	c0-0.44-0.05-0.86-0.11-1.28c-3.76-1.16-6.57-4.47-6.99-8.49C23.09,19.59,27,23.84,27,29z"/>
</svg>
