<?xml version="1.0" encoding="utf-8"?>

<svg version="1.1" id="Layer_1" xmlns="http://www.w3.org/2000/svg" xmlns:xlink="http://www.w3.org/1999/xlink" x="0px" y="0px"
	 viewBox="0 0 46 46" style="enable-background:new 0 0 46 46;" xml:space="preserve">
<g>
	<circle fill="#FFFFFF" cx="23" cy="24" r="6"/>
	<path fill="#FFFFFF" d="M11.88,17.14c1.11,1.11,2.89,1.11,4,0l6.57-6.6c0.31-0.31,0.82-0.31,1.13,0l6.59,6.63
		c1.1,1.1,2.86,1.11,3.97,0.03h0c1.13-1.11,1.15-2.93,0.04-4.06l-9.17-9.29c-1.1-1.11-2.9-1.12-4.01-0.01l-9.17,9.22
		c-1.11,1.11-1.11,2.93,0,4.04L11.88,17.14z"/>
	<path fill="#FFFFFF" d="M34.17,30.91l-0.05-0.05c-1.11-1.11-2.89-1.11-4,0l-6.57,6.6c-0.31,0.31-0.82,0.31-1.13,0l-6.59-6.63
		c-1.1-1.1-2.86-1.11-3.97-0.03c-1.13,1.11-1.15,2.93-0.04,4.06l9.17,9.29c1.1,1.11,2.9,1.12,4.01,0.01l9.17-9.22
		C35.28,33.84,35.28,32.02,34.17,30.91z"/>
</g>
</svg>
