<?xml version="1.0" encoding="utf-8"?>

<svg version="1.1" id="Layer_1" xmlns="http://www.w3.org/2000/svg" xmlns:xlink="http://www.w3.org/1999/xlink" x="0px" y="0px"
	 viewBox="0 0 46 46" style="enable-background:new 0 0 46 46;" xml:space="preserve">

<path  fill-rule="evenodd" clip-rule="evenodd" fill="#FFFFFF" d="M37.32,10.83L43,5l-3-3l-6.42,6.59C30.41,7.02,26.82,6,23,6C10.3,6,0,17.28,0,23c0,3.09,3.16,7.97,8.13,11.71
	L2,41l3,3l6.78-6.96C15.1,38.82,18.92,40,23,40c12.7,0,23-11.34,23-17C46,19.68,42.61,14.58,37.32,10.83z M14,23c0-4.97,4.03-9,9-9
	c1.54,0,2.99,0.39,4.26,1.07L15.19,27.46C14.44,26.15,14,24.63,14,23z M23,32c-1.81,0-3.48-0.54-4.89-1.45l12.31-12.64
	C31.42,19.36,32,21.11,32,23C32,27.97,27.97,32,23,32z"/>
</svg>
