<?xml version="1.0" encoding="utf-8" ?>
<svg id="icon-logify-logo" viewBox="0 0 295.7 67.9" x="0px" y="0px">
    <path d="M115.8 6.2H128v33.3c0 2.6 1 3.8 3.1 3.8.5 0 1.1-.1 1.7-.3.6-.2 1.2-.4 1.7-.7l1.5 9c-1.5.7-3.1 1.2-4.9 1.6-1.8.4-3.5.6-5.2.6-3.2 0-5.7-.8-7.5-2.5-1.8-1.7-2.6-4.1-2.6-7.2V6.2zm39.6 47.4c-3 0-5.7-.5-8-1.4-2.3-1-4.2-2.2-5.8-3.8s-2.7-3.5-3.5-5.6c-.8-2.1-1.2-4.3-1.2-6.6s.4-4.5 1.2-6.6c.8-2.1 2-4 3.5-5.6s3.5-2.9 5.8-3.8c2.3-1 4.9-1.4 8-1.4 3 0 5.6.5 7.9 1.4 2.3 1 4.2 2.2 5.8 3.8s2.7 3.5 3.5 5.6c.8 2.1 1.2 4.3 1.2 6.6s-.4 4.5-1.2 6.6c-.8 2.1-2 4-3.5 5.6s-3.5 2.9-5.8 3.8c-2.3.9-4.9 1.4-7.9 1.4zm-6-17.5c0 2.3.6 4 1.7 5.3 1.1 1.3 2.5 1.9 4.3 1.9 1.7 0 3.2-.6 4.3-1.9 1.1-1.3 1.7-3 1.7-5.3s-.6-4-1.7-5.3c-1.1-1.3-2.5-1.9-4.3-1.9-1.8 0-3.2.6-4.3 1.9-1.1 1.3-1.7 3-1.7 5.3zM191 52.9c-2.2 0-4.2-.4-6-1.3-1.8-.9-3.4-2.1-4.6-3.6-1.3-1.5-2.3-3.3-3-5.3-.7-2-1.1-4.3-1.1-6.7 0-2.5.4-4.8 1.2-7 .8-2.1 1.8-4 3.2-5.5 1.4-1.5 3-2.7 5-3.6 1.9-.9 4-1.3 6.3-1.3 2.4 0 4.6.5 6.4 1.4 1.8 1 3.3 2.4 4.4 4.2v-5h10.6v30.6c0 2.6-.5 5-1.5 7.2-1 2.1-2.4 3.9-4.2 5.4-1.8 1.5-3.9 2.7-6.5 3.5-2.5.8-5.3 1.2-8.4 1.2-3.6 0-6.7-.6-9.3-1.7-2.6-1.1-5-2.7-7-4.8l6.4-6.7c1.2 1.2 2.7 2.1 4.4 2.9 1.7.8 3.6 1.2 5.5 1.2 1.1 0 2.2-.1 3.2-.4 1-.3 1.9-.8 2.7-1.4.8-.7 1.4-1.5 1.8-2.6.4-1.1.7-2.3.7-3.8v-2.2c-1 1.8-2.4 3.1-4.2 4-1.8.9-3.8 1.3-6 1.3zm4.4-9.6c1.2 0 2.3-.3 3.2-.9.9-.6 1.8-1.4 2.6-2.6v-6c-.6-1.5-1.5-2.8-2.7-3.6-1.2-.9-2.4-1.3-3.7-1.3-.9 0-1.7.2-2.4.6-.7.4-1.4.9-2 1.6-.6.7-1 1.5-1.3 2.4-.3.9-.4 1.9-.4 2.9 0 2.1.6 3.8 1.9 5.1 1.3 1.2 2.8 1.8 4.8 1.8zm24.1-26.9V6.2h12.2v10.2h-12.2zm0 36.5V19.3h12.2V53h-12.2zm20.7 0V32.3H236v-9.2h4.2v-3.6c0-2.1.3-4 .9-5.7.6-1.7 1.4-3.2 2.5-4.4 1.1-1.2 2.4-2.2 3.9-2.8 1.5-.7 3.2-1 5.1-1 2.8 0 5.9.6 9.3 1.9l-2 9.2c-.7-.3-1.5-.5-2.3-.6-.8-.2-1.6-.3-2.2-.3-2 0-2.9 1.1-2.9 3.3v4.1h7.4v9.2h-7.4V53h-12.3z"></path>
    <path d="M263.3 56.3c2 .7 3.6 1.1 5 1.1 2.6 0 4-1.5 4.3-4.5l-12.2-33.7h12.5l6.4 23.4 5.2-23.4h11.3L284.3 57c-.5 1.7-1.2 3.2-2.2 4.5-.9 1.3-2.1 2.5-3.4 3.5-1.3 1-2.7 1.7-4.3 2.2-1.6.5-3.2.8-4.9.8-2.2 0-4.3-.4-6.3-1.2V56.3zm-192 5.4L55 21.9 40.9 51.1c-.7 1.5-2.9 1.5-3.6 0L28 30.9l-4.4 8c-.4.6-1 1-1.7 1H5c-2.8 0-5-2.2-5-5s2.2-5 5-5h12l9.2-16.7c.8-1.4 2.8-1.4 3.5.1L39 31.9 53.1 1.2c.7-1.6 3-1.5 3.7.1L73 41.9 80.4 27c.3-.7 1-1.1 1.8-1.1H99c2.8 0 5 2.2 5 5s-2.2 5-5 5H87L74.9 61.8c-.7 1.6-3 1.5-3.6-.1z"></path>
</svg>
