<?xml version="1.0" encoding="utf-8"?>
<svg version="1.1" id="Layer_1" xmlns="http://www.w3.org/2000/svg" xmlns:xlink="http://www.w3.org/1999/xlink" x="0px" y="0px"
	 viewBox="0 0 40 40" style="enable-background:new 0 0 40 40;" xml:space="preserve">
<g>
	<path fill-rule="evenodd" clip-rule="evenodd" fill="#FFFFFF" d="M38.7,10.9l-9.6-9.6c-0.8-0.8-2-1.3-3.1-1.3H23v13H5V0H4C2,0,0,2,0,4.4v31.1C0,38,2,40,4.4,40h31.1
		c2.5,0,4.4-2,4.4-4.4V14.1C40,12.9,39.5,11.8,38.7,10.9z M35,35H5V20h30V35z"/>
	<rect x="13" fill-rule="evenodd" clip-rule="evenodd" fill="#FFFFFF" width="7" height="10"/>
	<rect x="8" y="23" fill-rule="evenodd" clip-rule="evenodd" fill="#FFFFFF" width="24" height="3"/>
	<rect x="8" y="29" fill-rule="evenodd" clip-rule="evenodd" fill="#FFFFFF" width="24" height="3"/>
</g>
</svg>
